<svg width="290" height="366" viewBox="0 0 290 366" fill="none" xmlns="http://www.w3.org/2000/svg">
<g filter="url(#filter0_d_312_19)">
<rect y="54" width="280" height="302" rx="30" fill="#F7F3E8"/>
<rect x="0.5" y="54.5" width="279" height="301" rx="29.5" stroke="#FFC800"/>
</g>
<path d="M26.2656 60.0312V49.5547C26.2656 46.5078 26.8516 43.3672 28.0234 40.1328C29.1953 36.8984 30.7422 33.8516 32.6641 30.9922C34.5859 28.0859 36.6953 25.625 38.9922 23.6094L48.4141 29.0938C46.7266 31.9062 45.2734 34.9297 44.0547 38.1641C42.8359 41.3984 42.2266 45.1953 42.2266 49.5547V60.0312H26.2656ZM50.1719 60.0312V49.5547C50.1719 46.5078 50.7578 43.3672 51.9297 40.1328C53.1016 36.8984 54.6484 33.8516 56.5703 30.9922C58.4922 28.0859 60.6016 25.625 62.8984 23.6094L72.3203 29.0938C70.6328 31.9062 69.1797 34.9297 67.9609 38.1641C66.7422 41.3984 66.1328 45.1953 66.1328 49.5547V60.0312H50.1719Z" fill="#FFC800"/>
<defs>
<filter id="filter0_d_312_19" x="0" y="54" width="290" height="312" filterUnits="userSpaceOnUse" color-interpolation-filters="sRGB">
<feFlood flood-opacity="0" result="BackgroundImageFix"/>
<feColorMatrix in="SourceAlpha" type="matrix" values="0 0 0 0 0 0 0 0 0 0 0 0 0 0 0 0 0 0 127 0" result="hardAlpha"/>
<feOffset dx="5" dy="5"/>
<feGaussianBlur stdDeviation="2.5"/>
<feComposite in2="hardAlpha" operator="out"/>
<feColorMatrix type="matrix" values="0 0 0 0 1 0 0 0 0 0.784314 0 0 0 0 0 0 0 0 1 0"/>
<feBlend mode="normal" in2="BackgroundImageFix" result="effect1_dropShadow_312_19"/>
<feBlend mode="normal" in="SourceGraphic" in2="effect1_dropShadow_312_19" result="shape"/>
</filter>
</defs>
</svg>
