<svg width="209" height="42" viewBox="0 0 209 42" fill="none" xmlns="http://www.w3.org/2000/svg">
<rect x="2" y="14" width="205" height="19" fill="#FFC800"/>
<path d="M23.5879 7.40625V33H18.3145V11.5371H8.03125V33H2.75781V7.40625H23.5879ZM27.0684 23.6836V23.3145C27.0684 21.9199 27.2676 20.6367 27.666 19.4648C28.0645 18.2812 28.6445 17.2559 29.4062 16.3887C30.168 15.5215 31.1055 14.8477 32.2188 14.3672C33.332 13.875 34.6094 13.6289 36.0508 13.6289C37.4922 13.6289 38.7754 13.875 39.9004 14.3672C41.0254 14.8477 41.9688 15.5215 42.7305 16.3887C43.5039 17.2559 44.0898 18.2812 44.4883 19.4648C44.8867 20.6367 45.0859 21.9199 45.0859 23.3145V23.6836C45.0859 25.0664 44.8867 26.3496 44.4883 27.5332C44.0898 28.7051 43.5039 29.7305 42.7305 30.6094C41.9688 31.4766 41.0312 32.1504 39.918 32.6309C38.8047 33.1113 37.5273 33.3516 36.0859 33.3516C34.6445 33.3516 33.3613 33.1113 32.2363 32.6309C31.123 32.1504 30.1797 31.4766 29.4062 30.6094C28.6445 29.7305 28.0645 28.7051 27.666 27.5332C27.2676 26.3496 27.0684 25.0664 27.0684 23.6836ZM32.1309 23.3145V23.6836C32.1309 24.4805 32.2012 25.2246 32.3418 25.916C32.4824 26.6074 32.7051 27.2168 33.0098 27.7441C33.3262 28.2598 33.7363 28.6641 34.2402 28.957C34.7441 29.25 35.3594 29.3965 36.0859 29.3965C36.7891 29.3965 37.3926 29.25 37.8965 28.957C38.4004 28.6641 38.8047 28.2598 39.1094 27.7441C39.4141 27.2168 39.6367 26.6074 39.7773 25.916C39.9297 25.2246 40.0059 24.4805 40.0059 23.6836V23.3145C40.0059 22.541 39.9297 21.8145 39.7773 21.1348C39.6367 20.4434 39.4082 19.834 39.0918 19.3066C38.7871 18.7676 38.3828 18.3457 37.8789 18.041C37.375 17.7363 36.7656 17.584 36.0508 17.584C35.3359 17.584 34.7266 17.7363 34.2227 18.041C33.7305 18.3457 33.3262 18.7676 33.0098 19.3066C32.7051 19.834 32.4824 20.4434 32.3418 21.1348C32.2012 21.8145 32.1309 22.541 32.1309 23.3145ZM56.0547 29.3965C56.6758 29.3965 57.2266 29.2793 57.707 29.0449C58.1875 28.7988 58.5625 28.459 58.832 28.0254C59.1133 27.5801 59.2598 27.0586 59.2715 26.4609H64.0352C64.0234 27.7969 63.666 28.9863 62.9629 30.0293C62.2598 31.0605 61.3164 31.875 60.1328 32.4727C58.9492 33.0586 57.625 33.3516 56.1602 33.3516C54.6836 33.3516 53.3945 33.1055 52.293 32.6133C51.2031 32.1211 50.2949 31.4414 49.5684 30.5742C48.8418 29.6953 48.2969 28.6758 47.9336 27.5156C47.5703 26.3438 47.3887 25.0898 47.3887 23.7539V23.2441C47.3887 21.8965 47.5703 20.6426 47.9336 19.4824C48.2969 18.3105 48.8418 17.291 49.5684 16.4238C50.2949 15.5449 51.2031 14.8594 52.293 14.3672C53.3828 13.875 54.6602 13.6289 56.125 13.6289C57.6836 13.6289 59.0488 13.9277 60.2207 14.5254C61.4043 15.123 62.3301 15.9785 62.998 17.0918C63.6777 18.1934 64.0234 19.5 64.0352 21.0117H59.2715C59.2598 20.3789 59.125 19.8047 58.8672 19.2891C58.6211 18.7734 58.2578 18.3633 57.7773 18.0586C57.3086 17.7422 56.7285 17.584 56.0371 17.584C55.2988 17.584 54.6953 17.7422 54.2266 18.0586C53.7578 18.3633 53.3945 18.7852 53.1367 19.3242C52.8789 19.8516 52.6973 20.4551 52.5918 21.1348C52.498 21.8027 52.4512 22.5059 52.4512 23.2441V23.7539C52.4512 24.4922 52.498 25.2012 52.5918 25.8809C52.6855 26.5605 52.8613 27.1641 53.1191 27.6914C53.3887 28.2188 53.7578 28.6348 54.2266 28.9395C54.6953 29.2441 55.3047 29.3965 56.0547 29.3965ZM78.5371 27.1816L83.5293 13.9805H87.6602L80.2422 33H76.832L69.4492 13.9805H73.5801L78.5371 27.1816ZM72.3672 13.9805V33H67.3047V13.9805H72.3672ZM84.8301 33V13.9805H89.8926V33H84.8301ZM93.5137 23.6836V23.3145C93.5137 21.9199 93.7129 20.6367 94.1113 19.4648C94.5098 18.2812 95.0898 17.2559 95.8516 16.3887C96.6133 15.5215 97.5508 14.8477 98.6641 14.3672C99.7773 13.875 101.055 13.6289 102.496 13.6289C103.938 13.6289 105.221 13.875 106.346 14.3672C107.471 14.8477 108.414 15.5215 109.176 16.3887C109.949 17.2559 110.535 18.2812 110.934 19.4648C111.332 20.6367 111.531 21.9199 111.531 23.3145V23.6836C111.531 25.0664 111.332 26.3496 110.934 27.5332C110.535 28.7051 109.949 29.7305 109.176 30.6094C108.414 31.4766 107.477 32.1504 106.363 32.6309C105.25 33.1113 103.973 33.3516 102.531 33.3516C101.09 33.3516 99.8066 33.1113 98.6816 32.6309C97.5684 32.1504 96.625 31.4766 95.8516 30.6094C95.0898 29.7305 94.5098 28.7051 94.1113 27.5332C93.7129 26.3496 93.5137 25.0664 93.5137 23.6836ZM98.5762 23.3145V23.6836C98.5762 24.4805 98.6465 25.2246 98.7871 25.916C98.9277 26.6074 99.1504 27.2168 99.4551 27.7441C99.7715 28.2598 100.182 28.6641 100.686 28.957C101.189 29.25 101.805 29.3965 102.531 29.3965C103.234 29.3965 103.838 29.25 104.342 28.957C104.846 28.6641 105.25 28.2598 105.555 27.7441C105.859 27.2168 106.082 26.6074 106.223 25.916C106.375 25.2246 106.451 24.4805 106.451 23.6836V23.3145C106.451 22.541 106.375 21.8145 106.223 21.1348C106.082 20.4434 105.854 19.834 105.537 19.3066C105.232 18.7676 104.828 18.3457 104.324 18.041C103.82 17.7363 103.211 17.584 102.496 17.584C101.781 17.584 101.172 17.7363 100.668 18.041C100.176 18.3457 99.7715 18.7676 99.4551 19.3066C99.1504 19.834 98.9277 20.4434 98.7871 21.1348C98.6465 21.8145 98.5762 22.541 98.5762 23.3145ZM123.836 13.9805V33H118.756V13.9805H123.836ZM129.953 13.9805V17.9004H112.727V13.9805H129.953ZM137.6 17.6367V40.3125H132.537V13.9805H137.23L137.6 17.6367ZM149.641 23.2793V23.6484C149.641 25.0312 149.477 26.3145 149.148 27.498C148.832 28.6816 148.363 29.7129 147.742 30.5918C147.121 31.459 146.348 32.1387 145.422 32.6309C144.508 33.1113 143.453 33.3516 142.258 33.3516C141.098 33.3516 140.09 33.1172 139.234 32.6484C138.379 32.1797 137.658 31.5234 137.072 30.6797C136.498 29.8242 136.035 28.834 135.684 27.709C135.332 26.584 135.062 25.377 134.875 24.0879V23.1211C135.062 21.7383 135.332 20.4727 135.684 19.3242C136.035 18.1641 136.498 17.1621 137.072 16.3184C137.658 15.4629 138.373 14.8008 139.217 14.332C140.072 13.8633 141.074 13.6289 142.223 13.6289C143.43 13.6289 144.49 13.8574 145.404 14.3145C146.33 14.7715 147.104 15.4277 147.725 16.2832C148.357 17.1387 148.832 18.1582 149.148 19.3418C149.477 20.5254 149.641 21.8379 149.641 23.2793ZM144.561 23.6484V23.2793C144.561 22.4707 144.49 21.7266 144.35 21.0469C144.221 20.3555 144.01 19.752 143.717 19.2363C143.436 18.7207 143.061 18.3223 142.592 18.041C142.135 17.748 141.578 17.6016 140.922 17.6016C140.23 17.6016 139.639 17.7129 139.146 17.9355C138.666 18.1582 138.273 18.4805 137.969 18.9023C137.664 19.3242 137.436 19.8281 137.283 20.4141C137.131 21 137.037 21.6621 137.002 22.4004V24.8438C137.061 25.7109 137.225 26.4902 137.494 27.1816C137.764 27.8613 138.18 28.4004 138.742 28.7988C139.305 29.1973 140.043 29.3965 140.957 29.3965C141.625 29.3965 142.188 29.25 142.645 28.957C143.102 28.6523 143.471 28.2363 143.752 27.709C144.045 27.1816 144.25 26.5723 144.367 25.8809C144.496 25.1895 144.561 24.4453 144.561 23.6484ZM161.541 33.3516C160.064 33.3516 158.74 33.1172 157.568 32.6484C156.396 32.168 155.4 31.5059 154.58 30.6621C153.771 29.8184 153.15 28.8398 152.717 27.7266C152.283 26.6016 152.066 25.4062 152.066 24.1406V23.4375C152.066 21.9961 152.271 20.6777 152.682 19.4824C153.092 18.2871 153.678 17.25 154.439 16.3711C155.213 15.4922 156.15 14.8184 157.252 14.3496C158.354 13.8691 159.596 13.6289 160.979 13.6289C162.326 13.6289 163.521 13.8516 164.564 14.2969C165.607 14.7422 166.48 15.375 167.184 16.1953C167.898 17.0156 168.438 18 168.801 19.1484C169.164 20.2852 169.346 21.5508 169.346 22.9453V25.0547H154.229V21.6797H164.371V21.293C164.371 20.5898 164.242 19.9629 163.984 19.4121C163.738 18.8496 163.363 18.4043 162.859 18.0762C162.355 17.748 161.711 17.584 160.926 17.584C160.258 17.584 159.684 17.7305 159.203 18.0234C158.723 18.3164 158.33 18.7266 158.025 19.2539C157.732 19.7812 157.51 20.4023 157.357 21.1172C157.217 21.8203 157.146 22.5938 157.146 23.4375V24.1406C157.146 24.9023 157.252 25.6055 157.463 26.25C157.686 26.8945 157.996 27.4512 158.395 27.9199C158.805 28.3887 159.297 28.752 159.871 29.0098C160.457 29.2676 161.119 29.3965 161.857 29.3965C162.771 29.3965 163.621 29.2207 164.406 28.8691C165.203 28.5059 165.889 27.9609 166.463 27.2344L168.924 29.9062C168.525 30.4805 167.98 31.0312 167.289 31.5586C166.609 32.0859 165.789 32.5195 164.828 32.8594C163.867 33.1875 162.771 33.3516 161.541 33.3516ZM181.703 13.9805V33H176.623V13.9805H181.703ZM187.82 13.9805V17.9004H170.594V13.9805H187.82ZM193.902 19.623H199.422C201.156 19.623 202.633 19.9102 203.852 20.4844C205.082 21.0469 206.02 21.832 206.664 22.8398C207.32 23.8477 207.648 25.0137 207.648 26.3379C207.648 27.2988 207.461 28.1895 207.086 29.0098C206.723 29.8184 206.189 30.5215 205.486 31.1191C204.783 31.7168 203.922 32.1797 202.902 32.5078C201.883 32.8359 200.723 33 199.422 33H190.738V13.9805H195.818V29.0625H199.422C200.184 29.0625 200.793 28.9395 201.25 28.6934C201.719 28.4355 202.059 28.1016 202.27 27.6914C202.492 27.2812 202.604 26.8359 202.604 26.3555C202.604 25.8516 202.492 25.3945 202.27 24.9844C202.059 24.5625 201.719 24.2227 201.25 23.9648C200.793 23.707 200.184 23.5781 199.422 23.5781H193.902V19.623Z" fill="black"/>
</svg>
