<svg width="87" height="28" viewBox="0 0 87 28" fill="none" xmlns="http://www.w3.org/2000/svg">
<rect x="2" y="9" width="59" height="13" fill="#FFC800"/>
<path d="M1.74609 4.9375H4.69922V19.668H9.97266V4.9375H12.9023V19.668H18.1289V4.9375H21.0586V22H1.74609V4.9375ZM31.4062 19.457V13.4102C31.4062 12.957 31.3242 12.5664 31.1602 12.2383C30.9961 11.9102 30.7461 11.6562 30.4102 11.4766C30.082 11.2969 29.668 11.207 29.168 11.207C28.707 11.207 28.3086 11.2852 27.9727 11.4414C27.6367 11.5977 27.375 11.8086 27.1875 12.0742C27 12.3398 26.9062 12.6406 26.9062 12.9766H24.0938C24.0938 12.4766 24.2148 11.9922 24.457 11.5234C24.6992 11.0547 25.0508 10.6367 25.5117 10.2695C25.9727 9.90234 26.5234 9.61328 27.1641 9.40234C27.8047 9.19141 28.5234 9.08594 29.3203 9.08594C30.2734 9.08594 31.1172 9.24609 31.8516 9.56641C32.5938 9.88672 33.1758 10.3711 33.5977 11.0195C34.0273 11.6602 34.2422 12.4648 34.2422 13.4336V19.0703C34.2422 19.6484 34.2812 20.168 34.3594 20.6289C34.4453 21.082 34.5664 21.4766 34.7227 21.8125V22H31.8281C31.6953 21.6953 31.5898 21.3086 31.5117 20.8398C31.4414 20.3633 31.4062 19.9023 31.4062 19.457ZM31.8164 14.2891L31.8398 16.0352H29.8125C29.2891 16.0352 28.8281 16.0859 28.4297 16.1875C28.0312 16.2812 27.6992 16.4219 27.4336 16.6094C27.168 16.7969 26.9688 17.0234 26.8359 17.2891C26.7031 17.5547 26.6367 17.8555 26.6367 18.1914C26.6367 18.5273 26.7148 18.8359 26.8711 19.1172C27.0273 19.3906 27.2539 19.6055 27.5508 19.7617C27.8555 19.918 28.2227 19.9961 28.6523 19.9961C29.2305 19.9961 29.7344 19.8789 30.1641 19.6445C30.6016 19.4023 30.9453 19.1094 31.1953 18.7656C31.4453 18.4141 31.5781 18.082 31.5938 17.7695L32.5078 19.0234C32.4141 19.3438 32.2539 19.6875 32.0273 20.0547C31.8008 20.4219 31.5039 20.7734 31.1367 21.1094C30.7773 21.4375 30.3438 21.707 29.8359 21.918C29.3359 22.1289 28.7578 22.2344 28.1016 22.2344C27.2734 22.2344 26.5352 22.0703 25.8867 21.7422C25.2383 21.4062 24.7305 20.957 24.3633 20.3945C23.9961 19.8242 23.8125 19.1797 23.8125 18.4609C23.8125 17.7891 23.9375 17.1953 24.1875 16.6797C24.4453 16.1562 24.8203 15.7188 25.3125 15.3672C25.8125 15.0156 26.4219 14.75 27.1406 14.5703C27.8594 14.3828 28.6797 14.2891 29.6016 14.2891H31.8164ZM45.6328 9.32031V11.5703H40.1016V22H37.2773V9.32031H45.6328ZM60.7969 4.87891V22H57.9727V8.23047L53.7891 9.64844V7.31641L60.457 4.87891H60.7969ZM85.3477 12.2852V14.9453H73.1836V12.2852H85.3477Z" fill="black"/>
</svg>
