<svg width="99" height="42" viewBox="0 0 99 42" fill="none" xmlns="http://www.w3.org/2000/svg">
<rect x="2" y="14" width="85" height="19" fill="#FFC800"/>
<path d="M2.23242 7.40625H7.52344V28.8867H14.6602V7.40625H19.9336V28.8867H27V7.40625H32.2559V33H2.23242V7.40625ZM46.7227 28.7109V20.2383C46.7227 19.6289 46.623 19.1074 46.4238 18.6738C46.2246 18.2285 45.9141 17.8828 45.4922 17.6367C45.082 17.3906 44.5488 17.2676 43.8926 17.2676C43.3301 17.2676 42.8438 17.3672 42.4336 17.5664C42.0234 17.7539 41.707 18.0293 41.4844 18.3926C41.2617 18.7441 41.1504 19.1602 41.1504 19.6406H36.0879C36.0879 18.832 36.2754 18.0645 36.6504 17.3379C37.0254 16.6113 37.5703 15.9727 38.2852 15.4219C39 14.8594 39.8496 14.4199 40.834 14.1035C41.8301 13.7871 42.9434 13.6289 44.1738 13.6289C45.6504 13.6289 46.9629 13.875 48.1113 14.3672C49.2598 14.8594 50.1621 15.5977 50.8184 16.582C51.4863 17.5664 51.8203 18.7969 51.8203 20.2734V28.4121C51.8203 29.4551 51.8848 30.3105 52.0137 30.9785C52.1426 31.6348 52.3301 32.209 52.5762 32.7012V33H47.4609C47.2148 32.4844 47.0273 31.8398 46.8984 31.0664C46.7812 30.2812 46.7227 29.4961 46.7227 28.7109ZM47.3906 21.416L47.4258 24.2812H44.5957C43.9277 24.2812 43.3477 24.3574 42.8555 24.5098C42.3633 24.6621 41.959 24.8789 41.6426 25.1602C41.3262 25.4297 41.0918 25.7461 40.9395 26.1094C40.7988 26.4727 40.7285 26.8711 40.7285 27.3047C40.7285 27.7383 40.8281 28.1309 41.0273 28.4824C41.2266 28.8223 41.5137 29.0918 41.8887 29.291C42.2637 29.4785 42.7031 29.5723 43.207 29.5723C43.9688 29.5723 44.6309 29.4199 45.1934 29.1152C45.7559 28.8105 46.1895 28.4355 46.4941 27.9902C46.8105 27.5449 46.9746 27.123 46.9863 26.7246L48.3223 28.8691C48.1348 29.3496 47.877 29.8477 47.5488 30.3633C47.2324 30.8789 46.8281 31.3652 46.3359 31.8223C45.8438 32.2676 45.252 32.6367 44.5605 32.9297C43.8691 33.2109 43.0488 33.3516 42.0996 33.3516C40.8926 33.3516 39.7969 33.1113 38.8125 32.6309C37.8398 32.1387 37.0664 31.4648 36.4922 30.6094C35.9297 29.7422 35.6484 28.7578 35.6484 27.6562C35.6484 26.6602 35.8359 25.7754 36.2109 25.002C36.5859 24.2285 37.1367 23.5781 37.8633 23.0508C38.6016 22.5117 39.5215 22.1074 40.623 21.8379C41.7246 21.5566 43.002 21.416 44.4551 21.416H47.3906ZM68.6602 13.9805V17.9531H60.75V33H55.6875V13.9805H68.6602ZM91.9336 7.35352V33H86.8711V13.1895L80.7891 15.123V11.1328L91.3887 7.35352H91.9336Z" fill="black"/>
</svg>
