<svg width="99" height="42" viewBox="0 0 99 42" fill="none" xmlns="http://www.w3.org/2000/svg">
<rect x="6" y="14" width="91" height="19" fill="#FFC800"/>
<path d="M2.47852 7.40625H7.76953V28.8867H14.9062V7.40625H20.1797V28.8867H27.2461V7.40625H32.502V33H2.47852V7.40625ZM46.9688 28.7109V20.2383C46.9688 19.6289 46.8691 19.1074 46.6699 18.6738C46.4707 18.2285 46.1602 17.8828 45.7383 17.6367C45.3281 17.3906 44.7949 17.2676 44.1387 17.2676C43.5762 17.2676 43.0898 17.3672 42.6797 17.5664C42.2695 17.7539 41.9531 18.0293 41.7305 18.3926C41.5078 18.7441 41.3965 19.1602 41.3965 19.6406H36.334C36.334 18.832 36.5215 18.0645 36.8965 17.3379C37.2715 16.6113 37.8164 15.9727 38.5312 15.4219C39.2461 14.8594 40.0957 14.4199 41.0801 14.1035C42.0762 13.7871 43.1895 13.6289 44.4199 13.6289C45.8965 13.6289 47.209 13.875 48.3574 14.3672C49.5059 14.8594 50.4082 15.5977 51.0645 16.582C51.7324 17.5664 52.0664 18.7969 52.0664 20.2734V28.4121C52.0664 29.4551 52.1309 30.3105 52.2598 30.9785C52.3887 31.6348 52.5762 32.209 52.8223 32.7012V33H47.707C47.4609 32.4844 47.2734 31.8398 47.1445 31.0664C47.0273 30.2812 46.9688 29.4961 46.9688 28.7109ZM47.6367 21.416L47.6719 24.2812H44.8418C44.1738 24.2812 43.5938 24.3574 43.1016 24.5098C42.6094 24.6621 42.2051 24.8789 41.8887 25.1602C41.5723 25.4297 41.3379 25.7461 41.1855 26.1094C41.0449 26.4727 40.9746 26.8711 40.9746 27.3047C40.9746 27.7383 41.0742 28.1309 41.2734 28.4824C41.4727 28.8223 41.7598 29.0918 42.1348 29.291C42.5098 29.4785 42.9492 29.5723 43.4531 29.5723C44.2148 29.5723 44.877 29.4199 45.4395 29.1152C46.002 28.8105 46.4355 28.4355 46.7402 27.9902C47.0566 27.5449 47.2207 27.123 47.2324 26.7246L48.5684 28.8691C48.3809 29.3496 48.123 29.8477 47.7949 30.3633C47.4785 30.8789 47.0742 31.3652 46.582 31.8223C46.0898 32.2676 45.498 32.6367 44.8066 32.9297C44.1152 33.2109 43.2949 33.3516 42.3457 33.3516C41.1387 33.3516 40.043 33.1113 39.0586 32.6309C38.0859 32.1387 37.3125 31.4648 36.7383 30.6094C36.1758 29.7422 35.8945 28.7578 35.8945 27.6562C35.8945 26.6602 36.082 25.7754 36.457 25.002C36.832 24.2285 37.3828 23.5781 38.1094 23.0508C38.8477 22.5117 39.7676 22.1074 40.8691 21.8379C41.9707 21.5566 43.248 21.416 44.7012 21.416H47.6367ZM68.9062 13.9805V17.9531H60.9961V33H55.9336V13.9805H68.9062ZM97.3477 29.0449V33H79.8398V29.625L88.1191 20.748C88.9512 19.8223 89.6074 19.0078 90.0879 18.3047C90.5684 17.5898 90.9141 16.9512 91.125 16.3887C91.3477 15.8145 91.459 15.2695 91.459 14.7539C91.459 13.9805 91.3301 13.3184 91.0723 12.7676C90.8145 12.2051 90.4336 11.7715 89.9297 11.4668C89.4375 11.1621 88.8281 11.0098 88.1016 11.0098C87.3281 11.0098 86.6602 11.1973 86.0977 11.5723C85.5469 11.9473 85.125 12.4688 84.832 13.1367C84.5508 13.8047 84.4102 14.5605 84.4102 15.4043H79.3301C79.3301 13.8809 79.6934 12.4863 80.4199 11.2207C81.1465 9.94336 82.1719 8.92969 83.4961 8.17969C84.8203 7.41797 86.3906 7.03711 88.207 7.03711C90 7.03711 91.5117 7.33008 92.7422 7.91602C93.9844 8.49023 94.9219 9.32227 95.5547 10.4121C96.1992 11.4902 96.5215 12.7793 96.5215 14.2793C96.5215 15.123 96.3867 15.9492 96.1172 16.7578C95.8477 17.5547 95.4609 18.3516 94.957 19.1484C94.4648 19.9336 93.8672 20.7305 93.1641 21.5391C92.4609 22.3477 91.6816 23.1855 90.8262 24.0527L86.3789 29.0449H97.3477Z" fill="black"/>
</svg>
