<svg width="280" height="56" viewBox="0 0 280 56" fill="none" xmlns="http://www.w3.org/2000/svg">
<rect x="44" y="9" width="187" height="13" fill="#FFC800"/>
<rect x="113" y="37" width="102" height="13" fill="#FFC800"/>
<path d="M54.7344 4.9375V7.69141H47.0469V22H43.543V4.9375H54.7344ZM54.2422 15.7891V15.543C54.2422 14.6133 54.375 13.7578 54.6406 12.9766C54.9062 12.1875 55.293 11.5039 55.8008 10.9258C56.3086 10.3477 56.9336 9.89844 57.6758 9.57812C58.418 9.25 59.2695 9.08594 60.2305 9.08594C61.1914 9.08594 62.0469 9.25 62.7969 9.57812C63.5469 9.89844 64.1758 10.3477 64.6836 10.9258C65.1992 11.5039 65.5898 12.1875 65.8555 12.9766C66.1211 13.7578 66.2539 14.6133 66.2539 15.543V15.7891C66.2539 16.7109 66.1211 17.5664 65.8555 18.3555C65.5898 19.1367 65.1992 19.8203 64.6836 20.4062C64.1758 20.9844 63.5508 21.4336 62.8086 21.7539C62.0664 22.0742 61.2148 22.2344 60.2539 22.2344C59.293 22.2344 58.4375 22.0742 57.6875 21.7539C56.9453 21.4336 56.3164 20.9844 55.8008 20.4062C55.293 19.8203 54.9062 19.1367 54.6406 18.3555C54.375 17.5664 54.2422 16.7109 54.2422 15.7891ZM57.6172 15.543V15.7891C57.6172 16.3203 57.6641 16.8164 57.7578 17.2773C57.8516 17.7383 58 18.1445 58.2031 18.4961C58.4141 18.8398 58.6875 19.1094 59.0234 19.3047C59.3594 19.5 59.7695 19.5977 60.2539 19.5977C60.7227 19.5977 61.125 19.5 61.4609 19.3047C61.7969 19.1094 62.0664 18.8398 62.2695 18.4961C62.4727 18.1445 62.6211 17.7383 62.7148 17.2773C62.8164 16.8164 62.8672 16.3203 62.8672 15.7891V15.543C62.8672 15.0273 62.8164 14.543 62.7148 14.0898C62.6211 13.6289 62.4688 13.2227 62.2578 12.8711C62.0547 12.5117 61.7852 12.2305 61.4492 12.0273C61.1133 11.8242 60.707 11.7227 60.2305 11.7227C59.7539 11.7227 59.3477 11.8242 59.0117 12.0273C58.6836 12.2305 58.4141 12.5117 58.2031 12.8711C58 13.2227 57.8516 13.6289 57.7578 14.0898C57.6641 14.543 57.6172 15.0273 57.6172 15.543ZM74.457 9.32031V22H71.0703V9.32031H74.457ZM78.5352 9.32031V11.9336H67.0508V9.32031H78.5352ZM79.3203 15.7891V15.543C79.3203 14.6133 79.4531 13.7578 79.7188 12.9766C79.9844 12.1875 80.3711 11.5039 80.8789 10.9258C81.3867 10.3477 82.0117 9.89844 82.7539 9.57812C83.4961 9.25 84.3477 9.08594 85.3086 9.08594C86.2695 9.08594 87.125 9.25 87.875 9.57812C88.625 9.89844 89.2539 10.3477 89.7617 10.9258C90.2773 11.5039 90.668 12.1875 90.9336 12.9766C91.1992 13.7578 91.332 14.6133 91.332 15.543V15.7891C91.332 16.7109 91.1992 17.5664 90.9336 18.3555C90.668 19.1367 90.2773 19.8203 89.7617 20.4062C89.2539 20.9844 88.6289 21.4336 87.8867 21.7539C87.1445 22.0742 86.293 22.2344 85.332 22.2344C84.3711 22.2344 83.5156 22.0742 82.7656 21.7539C82.0234 21.4336 81.3945 20.9844 80.8789 20.4062C80.3711 19.8203 79.9844 19.1367 79.7188 18.3555C79.4531 17.5664 79.3203 16.7109 79.3203 15.7891ZM82.6953 15.543V15.7891C82.6953 16.3203 82.7422 16.8164 82.8359 17.2773C82.9297 17.7383 83.0781 18.1445 83.2812 18.4961C83.4922 18.8398 83.7656 19.1094 84.1016 19.3047C84.4375 19.5 84.8477 19.5977 85.332 19.5977C85.8008 19.5977 86.2031 19.5 86.5391 19.3047C86.875 19.1094 87.1445 18.8398 87.3477 18.4961C87.5508 18.1445 87.6992 17.7383 87.793 17.2773C87.8945 16.8164 87.9453 16.3203 87.9453 15.7891V15.543C87.9453 15.0273 87.8945 14.543 87.793 14.0898C87.6992 13.6289 87.5469 13.2227 87.3359 12.8711C87.1328 12.5117 86.8633 12.2305 86.5273 12.0273C86.1914 11.8242 85.7852 11.7227 85.3086 11.7227C84.832 11.7227 84.4258 11.8242 84.0898 12.0273C83.7617 12.2305 83.4922 12.5117 83.2812 12.8711C83.0781 13.2227 82.9297 13.6289 82.8359 14.0898C82.7422 14.543 82.6953 15.0273 82.6953 15.543ZM99.7227 16.7031H95.75L95.7266 14.4883H99.0078C99.4453 14.4883 99.8008 14.4453 100.074 14.3594C100.348 14.2656 100.547 14.1289 100.672 13.9492C100.805 13.7617 100.871 13.5352 100.871 13.2695C100.871 13.0352 100.828 12.8359 100.742 12.6719C100.664 12.5 100.543 12.3594 100.379 12.25C100.215 12.1406 100.008 12.0625 99.7578 12.0156C99.5156 11.9609 99.2305 11.9336 98.9023 11.9336H97.0039V22H93.6289V9.32031H98.9023C99.7305 9.32031 100.473 9.39453 101.129 9.54297C101.785 9.68359 102.344 9.89844 102.805 10.1875C103.273 10.4766 103.629 10.8438 103.871 11.2891C104.121 11.7266 104.246 12.2461 104.246 12.8477C104.246 13.2383 104.156 13.6055 103.977 13.9492C103.805 14.293 103.547 14.5977 103.203 14.8633C102.859 15.1289 102.434 15.3477 101.926 15.5195C101.426 15.6836 100.848 15.7852 100.191 15.8242L99.7227 16.7031ZM99.7227 22H94.918L96.0781 19.3867H99.7227C100.137 19.3867 100.477 19.3359 100.742 19.2344C101.008 19.1328 101.203 18.9844 101.328 18.7891C101.461 18.5859 101.527 18.3438 101.527 18.0625C101.527 17.7891 101.469 17.5508 101.352 17.3477C101.234 17.1445 101.043 16.9883 100.777 16.8789C100.52 16.7617 100.168 16.7031 99.7227 16.7031H96.5703L96.5938 14.4883H100.18L101 15.3789C101.891 15.4336 102.625 15.6016 103.203 15.8828C103.781 16.1641 104.207 16.5234 104.48 16.9609C104.762 17.3906 104.902 17.8633 104.902 18.3789C104.902 18.9805 104.789 19.5078 104.562 19.9609C104.336 20.4141 104 20.793 103.555 21.0977C103.117 21.3945 102.578 21.6211 101.938 21.7773C101.297 21.9258 100.559 22 99.7227 22ZM113.82 19.1406V13.4922C113.82 13.0859 113.754 12.7383 113.621 12.4492C113.488 12.1523 113.281 11.9219 113 11.7578C112.727 11.5938 112.371 11.5117 111.934 11.5117C111.559 11.5117 111.234 11.5781 110.961 11.7109C110.688 11.8359 110.477 12.0195 110.328 12.2617C110.18 12.4961 110.105 12.7734 110.105 13.0938H106.73C106.73 12.5547 106.855 12.043 107.105 11.5586C107.355 11.0742 107.719 10.6484 108.195 10.2812C108.672 9.90625 109.238 9.61328 109.895 9.40234C110.559 9.19141 111.301 9.08594 112.121 9.08594C113.105 9.08594 113.98 9.25 114.746 9.57812C115.512 9.90625 116.113 10.3984 116.551 11.0547C116.996 11.7109 117.219 12.5312 117.219 13.5156V18.9414C117.219 19.6367 117.262 20.207 117.348 20.6523C117.434 21.0898 117.559 21.4727 117.723 21.8008V22H114.312C114.148 21.6562 114.023 21.2266 113.938 20.7109C113.859 20.1875 113.82 19.6641 113.82 19.1406ZM114.266 14.2773L114.289 16.1875H112.402C111.957 16.1875 111.57 16.2383 111.242 16.3398C110.914 16.4414 110.645 16.5859 110.434 16.7734C110.223 16.9531 110.066 17.1641 109.965 17.4062C109.871 17.6484 109.824 17.9141 109.824 18.2031C109.824 18.4922 109.891 18.7539 110.023 18.9883C110.156 19.2148 110.348 19.3945 110.598 19.5273C110.848 19.6523 111.141 19.7148 111.477 19.7148C111.984 19.7148 112.426 19.6133 112.801 19.4102C113.176 19.207 113.465 18.957 113.668 18.6602C113.879 18.3633 113.988 18.082 113.996 17.8164L114.887 19.2461C114.762 19.5664 114.59 19.8984 114.371 20.2422C114.16 20.5859 113.891 20.9102 113.562 21.2148C113.234 21.5117 112.84 21.7578 112.379 21.9531C111.918 22.1406 111.371 22.2344 110.738 22.2344C109.934 22.2344 109.203 22.0742 108.547 21.7539C107.898 21.4258 107.383 20.9766 107 20.4062C106.625 19.8281 106.438 19.1719 106.438 18.4375C106.438 17.7734 106.562 17.1836 106.812 16.668C107.062 16.1523 107.43 15.7188 107.914 15.3672C108.406 15.0078 109.02 14.7383 109.754 14.5586C110.488 14.3711 111.34 14.2773 112.309 14.2773H114.266ZM122.551 15.6719H125.973L122.445 22H119.035L122.551 15.6719ZM124.824 9.32031H130.391V22H127.016V11.9336H124.824C124.363 11.9336 123.98 12.0195 123.676 12.1914C123.371 12.3555 123.145 12.5703 122.996 12.8359C122.855 13.0938 122.785 13.3594 122.785 13.6328C122.785 13.8984 122.855 14.1562 122.996 14.4062C123.137 14.6562 123.355 14.8633 123.652 15.0273C123.949 15.1914 124.32 15.2734 124.766 15.2734H128.27V17.5703H124.766C123.93 17.5703 123.18 17.4688 122.516 17.2656C121.859 17.0625 121.297 16.7812 120.828 16.4219C120.367 16.0547 120.012 15.6289 119.762 15.1445C119.52 14.6523 119.398 14.1133 119.398 13.5273C119.398 12.918 119.523 12.3594 119.773 11.8516C120.023 11.3438 120.383 10.8984 120.852 10.5156C121.32 10.1328 121.887 9.83984 122.551 9.63672C123.223 9.42578 123.98 9.32031 124.824 9.32031ZM145.543 16.7031H141.57L141.547 14.4883H144.828C145.266 14.4883 145.621 14.4453 145.895 14.3594C146.168 14.2656 146.367 14.1289 146.492 13.9492C146.625 13.7617 146.691 13.5352 146.691 13.2695C146.691 13.0352 146.648 12.8359 146.562 12.6719C146.484 12.5 146.363 12.3594 146.199 12.25C146.035 12.1406 145.828 12.0625 145.578 12.0156C145.336 11.9609 145.051 11.9336 144.723 11.9336H142.824V22H139.449V9.32031H144.723C145.551 9.32031 146.293 9.39453 146.949 9.54297C147.605 9.68359 148.164 9.89844 148.625 10.1875C149.094 10.4766 149.449 10.8438 149.691 11.2891C149.941 11.7266 150.066 12.2461 150.066 12.8477C150.066 13.2383 149.977 13.6055 149.797 13.9492C149.625 14.293 149.367 14.5977 149.023 14.8633C148.68 15.1289 148.254 15.3477 147.746 15.5195C147.246 15.6836 146.668 15.7852 146.012 15.8242L145.543 16.7031ZM145.543 22H140.738L141.898 19.3867H145.543C145.957 19.3867 146.297 19.3359 146.562 19.2344C146.828 19.1328 147.023 18.9844 147.148 18.7891C147.281 18.5859 147.348 18.3438 147.348 18.0625C147.348 17.7891 147.289 17.5508 147.172 17.3477C147.055 17.1445 146.863 16.9883 146.598 16.8789C146.34 16.7617 145.988 16.7031 145.543 16.7031H142.391L142.414 14.4883H146L146.82 15.3789C147.711 15.4336 148.445 15.6016 149.023 15.8828C149.602 16.1641 150.027 16.5234 150.301 16.9609C150.582 17.3906 150.723 17.8633 150.723 18.3789C150.723 18.9805 150.609 19.5078 150.383 19.9609C150.156 20.4141 149.82 20.793 149.375 21.0977C148.938 21.3945 148.398 21.6211 147.758 21.7773C147.117 21.9258 146.379 22 145.543 22ZM152.258 15.7891V15.543C152.258 14.6133 152.391 13.7578 152.656 12.9766C152.922 12.1875 153.309 11.5039 153.816 10.9258C154.324 10.3477 154.949 9.89844 155.691 9.57812C156.434 9.25 157.285 9.08594 158.246 9.08594C159.207 9.08594 160.062 9.25 160.812 9.57812C161.562 9.89844 162.191 10.3477 162.699 10.9258C163.215 11.5039 163.605 12.1875 163.871 12.9766C164.137 13.7578 164.27 14.6133 164.27 15.543V15.7891C164.27 16.7109 164.137 17.5664 163.871 18.3555C163.605 19.1367 163.215 19.8203 162.699 20.4062C162.191 20.9844 161.566 21.4336 160.824 21.7539C160.082 22.0742 159.23 22.2344 158.27 22.2344C157.309 22.2344 156.453 22.0742 155.703 21.7539C154.961 21.4336 154.332 20.9844 153.816 20.4062C153.309 19.8203 152.922 19.1367 152.656 18.3555C152.391 17.5664 152.258 16.7109 152.258 15.7891ZM155.633 15.543V15.7891C155.633 16.3203 155.68 16.8164 155.773 17.2773C155.867 17.7383 156.016 18.1445 156.219 18.4961C156.43 18.8398 156.703 19.1094 157.039 19.3047C157.375 19.5 157.785 19.5977 158.27 19.5977C158.738 19.5977 159.141 19.5 159.477 19.3047C159.812 19.1094 160.082 18.8398 160.285 18.4961C160.488 18.1445 160.637 17.7383 160.73 17.2773C160.832 16.8164 160.883 16.3203 160.883 15.7891V15.543C160.883 15.0273 160.832 14.543 160.73 14.0898C160.637 13.6289 160.484 13.2227 160.273 12.8711C160.07 12.5117 159.801 12.2305 159.465 12.0273C159.129 11.8242 158.723 11.7227 158.246 11.7227C157.77 11.7227 157.363 11.8242 157.027 12.0273C156.699 12.2305 156.43 12.5117 156.219 12.8711C156.016 13.2227 155.867 13.6289 155.773 14.0898C155.68 14.543 155.633 15.0273 155.633 15.543ZM169.719 11.7578V26.875H166.344V9.32031H169.473L169.719 11.7578ZM177.746 15.5195V15.7656C177.746 16.6875 177.637 17.543 177.418 18.332C177.207 19.1211 176.895 19.8086 176.48 20.3945C176.066 20.9727 175.551 21.4258 174.934 21.7539C174.324 22.0742 173.621 22.2344 172.824 22.2344C172.051 22.2344 171.379 22.0781 170.809 21.7656C170.238 21.4531 169.758 21.0156 169.367 20.4531C168.984 19.8828 168.676 19.2227 168.441 18.4727C168.207 17.7227 168.027 16.918 167.902 16.0586V15.4141C168.027 14.4922 168.207 13.6484 168.441 12.8828C168.676 12.1094 168.984 11.4414 169.367 10.8789C169.758 10.3086 170.234 9.86719 170.797 9.55469C171.367 9.24219 172.035 9.08594 172.801 9.08594C173.605 9.08594 174.312 9.23828 174.922 9.54297C175.539 9.84766 176.055 10.2852 176.469 10.8555C176.891 11.4258 177.207 12.1055 177.418 12.8945C177.637 13.6836 177.746 14.5586 177.746 15.5195ZM174.359 15.7656V15.5195C174.359 14.9805 174.312 14.4844 174.219 14.0312C174.133 13.5703 173.992 13.168 173.797 12.8242C173.609 12.4805 173.359 12.2148 173.047 12.0273C172.742 11.832 172.371 11.7344 171.934 11.7344C171.473 11.7344 171.078 11.8086 170.75 11.957C170.43 12.1055 170.168 12.3203 169.965 12.6016C169.762 12.8828 169.609 13.2188 169.508 13.6094C169.406 14 169.344 14.4414 169.32 14.9336V16.5625C169.359 17.1406 169.469 17.6602 169.648 18.1211C169.828 18.5742 170.105 18.9336 170.48 19.1992C170.855 19.4648 171.348 19.5977 171.957 19.5977C172.402 19.5977 172.777 19.5 173.082 19.3047C173.387 19.1016 173.633 18.8242 173.82 18.4727C174.016 18.1211 174.152 17.7148 174.23 17.2539C174.316 16.793 174.359 16.2969 174.359 15.7656ZM179.305 15.7891V15.543C179.305 14.6133 179.438 13.7578 179.703 12.9766C179.969 12.1875 180.355 11.5039 180.863 10.9258C181.371 10.3477 181.996 9.89844 182.738 9.57812C183.48 9.25 184.332 9.08594 185.293 9.08594C186.254 9.08594 187.109 9.25 187.859 9.57812C188.609 9.89844 189.238 10.3477 189.746 10.9258C190.262 11.5039 190.652 12.1875 190.918 12.9766C191.184 13.7578 191.316 14.6133 191.316 15.543V15.7891C191.316 16.7109 191.184 17.5664 190.918 18.3555C190.652 19.1367 190.262 19.8203 189.746 20.4062C189.238 20.9844 188.613 21.4336 187.871 21.7539C187.129 22.0742 186.277 22.2344 185.316 22.2344C184.355 22.2344 183.5 22.0742 182.75 21.7539C182.008 21.4336 181.379 20.9844 180.863 20.4062C180.355 19.8203 179.969 19.1367 179.703 18.3555C179.438 17.5664 179.305 16.7109 179.305 15.7891ZM182.68 15.543V15.7891C182.68 16.3203 182.727 16.8164 182.82 17.2773C182.914 17.7383 183.062 18.1445 183.266 18.4961C183.477 18.8398 183.75 19.1094 184.086 19.3047C184.422 19.5 184.832 19.5977 185.316 19.5977C185.785 19.5977 186.188 19.5 186.523 19.3047C186.859 19.1094 187.129 18.8398 187.332 18.4961C187.535 18.1445 187.684 17.7383 187.777 17.2773C187.879 16.8164 187.93 16.3203 187.93 15.7891V15.543C187.93 15.0273 187.879 14.543 187.777 14.0898C187.684 13.6289 187.531 13.2227 187.32 12.8711C187.117 12.5117 186.848 12.2305 186.512 12.0273C186.176 11.8242 185.77 11.7227 185.293 11.7227C184.816 11.7227 184.41 11.8242 184.074 12.0273C183.746 12.2305 183.477 12.5117 183.266 12.8711C183.062 13.2227 182.914 13.6289 182.82 14.0898C182.727 14.543 182.68 15.0273 182.68 15.543ZM202.074 14.4414V17.0664H195.629V14.4414H202.074ZM196.754 9.32031V22H193.379V9.32031H196.754ZM204.359 9.32031V22H200.973V9.32031H204.359ZM210.582 9.32031V22H207.207V9.32031H210.582ZM218.82 9.32031L213.359 17.2539H209.984L209.574 14.1367H211.812L214.543 9.32031H218.82ZM214.695 22L211.578 16.6445L214.52 15.0156L219.219 22H214.695ZM227.328 19.1406V13.4922C227.328 13.0859 227.262 12.7383 227.129 12.4492C226.996 12.1523 226.789 11.9219 226.508 11.7578C226.234 11.5938 225.879 11.5117 225.441 11.5117C225.066 11.5117 224.742 11.5781 224.469 11.7109C224.195 11.8359 223.984 12.0195 223.836 12.2617C223.688 12.4961 223.613 12.7734 223.613 13.0938H220.238C220.238 12.5547 220.363 12.043 220.613 11.5586C220.863 11.0742 221.227 10.6484 221.703 10.2812C222.18 9.90625 222.746 9.61328 223.402 9.40234C224.066 9.19141 224.809 9.08594 225.629 9.08594C226.613 9.08594 227.488 9.25 228.254 9.57812C229.02 9.90625 229.621 10.3984 230.059 11.0547C230.504 11.7109 230.727 12.5312 230.727 13.5156V18.9414C230.727 19.6367 230.77 20.207 230.855 20.6523C230.941 21.0898 231.066 21.4727 231.23 21.8008V22H227.82C227.656 21.6562 227.531 21.2266 227.445 20.7109C227.367 20.1875 227.328 19.6641 227.328 19.1406ZM227.773 14.2773L227.797 16.1875H225.91C225.465 16.1875 225.078 16.2383 224.75 16.3398C224.422 16.4414 224.152 16.5859 223.941 16.7734C223.73 16.9531 223.574 17.1641 223.473 17.4062C223.379 17.6484 223.332 17.9141 223.332 18.2031C223.332 18.4922 223.398 18.7539 223.531 18.9883C223.664 19.2148 223.855 19.3945 224.105 19.5273C224.355 19.6523 224.648 19.7148 224.984 19.7148C225.492 19.7148 225.934 19.6133 226.309 19.4102C226.684 19.207 226.973 18.957 227.176 18.6602C227.387 18.3633 227.496 18.082 227.504 17.8164L228.395 19.2461C228.27 19.5664 228.098 19.8984 227.879 20.2422C227.668 20.5859 227.398 20.9102 227.07 21.2148C226.742 21.5117 226.348 21.7578 225.887 21.9531C225.426 22.1406 224.879 22.2344 224.246 22.2344C223.441 22.2344 222.711 22.0742 222.055 21.7539C221.406 21.4258 220.891 20.9766 220.508 20.4062C220.133 19.8281 219.945 19.1719 219.945 18.4375C219.945 17.7734 220.07 17.1836 220.32 16.668C220.57 16.1523 220.938 15.7188 221.422 15.3672C221.914 15.0078 222.527 14.7383 223.262 14.5586C223.996 14.3711 224.848 14.2773 225.816 14.2773H227.773ZM67.8945 37.3203H71.2695L71.1641 41.5625C71.1328 42.9219 70.9766 44.0898 70.6953 45.0664C70.4141 46.043 70.0391 46.8633 69.5703 47.5273C69.1016 48.1914 68.5664 48.7227 67.9648 49.1211C67.3711 49.5117 66.7461 49.8047 66.0898 50H65.457L65.4219 47.3984L65.7734 47.3633C66.1719 46.9492 66.5 46.5469 66.7578 46.1562C67.0156 45.7578 67.2148 45.3398 67.3555 44.9023C67.4961 44.4648 67.5977 43.9766 67.6602 43.4375C67.7305 42.8984 67.7734 42.2734 67.7891 41.5625L67.8945 37.3203ZM68.8086 37.3203H77.2109V50H73.8477V40.0273H68.8086V37.3203ZM64.6836 47.3633H79.0273V53.8086H75.6523V50H68.1406V53.8086H64.6836V47.3633ZM89.2812 37.3203V39.9688H83.0469V37.3203H89.2812ZM91.7539 37.3203V50H88.3789V37.3203H91.7539ZM82.2031 37.3203H85.5195L85.1797 43.7188C85.1328 44.6328 85.0352 45.4375 84.8867 46.1328C84.7383 46.8281 84.5391 47.4219 84.2891 47.9141C84.0469 48.4062 83.7539 48.8086 83.4102 49.1211C83.0742 49.4258 82.6797 49.6484 82.2266 49.7891C81.7812 49.9297 81.2891 50 80.75 50H79.7188L79.6836 47.3398L80.1172 47.293C80.3672 47.2695 80.5859 47.1992 80.7734 47.082C80.9688 46.957 81.1328 46.7812 81.2656 46.5547C81.4062 46.3203 81.5234 46.0273 81.6172 45.6758C81.7109 45.3164 81.7852 44.8945 81.8398 44.4102C81.9023 43.9258 81.9453 43.3672 81.9688 42.7344L82.2031 37.3203ZM97.0977 43.6719H100.52L96.9922 50H93.582L97.0977 43.6719ZM99.3711 37.3203H104.938V50H101.562V39.9336H99.3711C98.9102 39.9336 98.5273 40.0195 98.2227 40.1914C97.918 40.3555 97.6914 40.5703 97.543 40.8359C97.4023 41.0938 97.332 41.3594 97.332 41.6328C97.332 41.8984 97.4023 42.1562 97.543 42.4062C97.6836 42.6562 97.9023 42.8633 98.1992 43.0273C98.4961 43.1914 98.8672 43.2734 99.3125 43.2734H102.816V45.5703H99.3125C98.4766 45.5703 97.7266 45.4688 97.0625 45.2656C96.4062 45.0625 95.8438 44.7812 95.375 44.4219C94.9141 44.0547 94.5586 43.6289 94.3086 43.1445C94.0664 42.6523 93.9453 42.1133 93.9453 41.5273C93.9453 40.918 94.0703 40.3594 94.3203 39.8516C94.5703 39.3438 94.9297 38.8984 95.3984 38.5156C95.8672 38.1328 96.4336 37.8398 97.0977 37.6367C97.7695 37.4258 98.5273 37.3203 99.3711 37.3203ZM119.012 47.5977C119.426 47.5977 119.793 47.5195 120.113 47.3633C120.434 47.1992 120.684 46.9727 120.863 46.6836C121.051 46.3867 121.148 46.0391 121.156 45.6406H124.332C124.324 46.5312 124.086 47.3242 123.617 48.0195C123.148 48.707 122.52 49.25 121.73 49.6484C120.941 50.0391 120.059 50.2344 119.082 50.2344C118.098 50.2344 117.238 50.0703 116.504 49.7422C115.777 49.4141 115.172 48.9609 114.688 48.3828C114.203 47.7969 113.84 47.1172 113.598 46.3438C113.355 45.5625 113.234 44.7266 113.234 43.8359V43.4961C113.234 42.5977 113.355 41.7617 113.598 40.9883C113.84 40.207 114.203 39.5273 114.688 38.9492C115.172 38.3633 115.777 37.9062 116.504 37.5781C117.23 37.25 118.082 37.0859 119.059 37.0859C120.098 37.0859 121.008 37.2852 121.789 37.6836C122.578 38.082 123.195 38.6523 123.641 39.3945C124.094 40.1289 124.324 41 124.332 42.0078H121.156C121.148 41.5859 121.059 41.2031 120.887 40.8594C120.723 40.5156 120.48 40.2422 120.16 40.0391C119.848 39.8281 119.461 39.7227 119 39.7227C118.508 39.7227 118.105 39.8281 117.793 40.0391C117.48 40.2422 117.238 40.5234 117.066 40.8828C116.895 41.2344 116.773 41.6367 116.703 42.0898C116.641 42.5352 116.609 43.0039 116.609 43.4961V43.8359C116.609 44.3281 116.641 44.8008 116.703 45.2539C116.766 45.707 116.883 46.1094 117.055 46.4609C117.234 46.8125 117.48 47.0898 117.793 47.293C118.105 47.4961 118.512 47.5977 119.012 47.5977ZM132.125 50.2344C131.141 50.2344 130.258 50.0781 129.477 49.7656C128.695 49.4453 128.031 49.0039 127.484 48.4414C126.945 47.8789 126.531 47.2266 126.242 46.4844C125.953 45.7344 125.809 44.9375 125.809 44.0938V43.625C125.809 42.6641 125.945 41.7852 126.219 40.9883C126.492 40.1914 126.883 39.5 127.391 38.9141C127.906 38.3281 128.531 37.8789 129.266 37.5664C130 37.2461 130.828 37.0859 131.75 37.0859C132.648 37.0859 133.445 37.2344 134.141 37.5312C134.836 37.8281 135.418 38.25 135.887 38.7969C136.363 39.3438 136.723 40 136.965 40.7656C137.207 41.5234 137.328 42.3672 137.328 43.2969V44.7031H127.25V42.4531H134.012V42.1953C134.012 41.7266 133.926 41.3086 133.754 40.9414C133.59 40.5664 133.34 40.2695 133.004 40.0508C132.668 39.832 132.238 39.7227 131.715 39.7227C131.27 39.7227 130.887 39.8203 130.566 40.0156C130.246 40.2109 129.984 40.4844 129.781 40.8359C129.586 41.1875 129.438 41.6016 129.336 42.0781C129.242 42.5469 129.195 43.0625 129.195 43.625V44.0938C129.195 44.6016 129.266 45.0703 129.406 45.5C129.555 45.9297 129.762 46.3008 130.027 46.6133C130.301 46.9258 130.629 47.168 131.012 47.3398C131.402 47.5117 131.844 47.5977 132.336 47.5977C132.945 47.5977 133.512 47.4805 134.035 47.2461C134.566 47.0039 135.023 46.6406 135.406 46.1562L137.047 47.9375C136.781 48.3203 136.418 48.6875 135.957 49.0391C135.504 49.3906 134.957 49.6797 134.316 49.9062C133.676 50.125 132.945 50.2344 132.125 50.2344ZM145.566 37.3203V50H142.18V37.3203H145.566ZM149.645 37.3203V39.9336H138.16V37.3203H149.645ZM156.383 50.2344C155.398 50.2344 154.516 50.0781 153.734 49.7656C152.953 49.4453 152.289 49.0039 151.742 48.4414C151.203 47.8789 150.789 47.2266 150.5 46.4844C150.211 45.7344 150.066 44.9375 150.066 44.0938V43.625C150.066 42.6641 150.203 41.7852 150.477 40.9883C150.75 40.1914 151.141 39.5 151.648 38.9141C152.164 38.3281 152.789 37.8789 153.523 37.5664C154.258 37.2461 155.086 37.0859 156.008 37.0859C156.906 37.0859 157.703 37.2344 158.398 37.5312C159.094 37.8281 159.676 38.25 160.145 38.7969C160.621 39.3438 160.98 40 161.223 40.7656C161.465 41.5234 161.586 42.3672 161.586 43.2969V44.7031H151.508V42.4531H158.27V42.1953C158.27 41.7266 158.184 41.3086 158.012 40.9414C157.848 40.5664 157.598 40.2695 157.262 40.0508C156.926 39.832 156.496 39.7227 155.973 39.7227C155.527 39.7227 155.145 39.8203 154.824 40.0156C154.504 40.2109 154.242 40.4844 154.039 40.8359C153.844 41.1875 153.695 41.6016 153.594 42.0781C153.5 42.5469 153.453 43.0625 153.453 43.625V44.0938C153.453 44.6016 153.523 45.0703 153.664 45.5C153.812 45.9297 154.02 46.3008 154.285 46.6133C154.559 46.9258 154.887 47.168 155.27 47.3398C155.66 47.5117 156.102 47.5977 156.594 47.5977C157.203 47.5977 157.77 47.4805 158.293 47.2461C158.824 47.0039 159.281 46.6406 159.664 46.1562L161.305 47.9375C161.039 48.3203 160.676 48.6875 160.215 49.0391C159.762 49.3906 159.215 49.6797 158.574 49.9062C157.934 50.125 157.203 50.2344 156.383 50.2344ZM169.824 44.7031H165.852L165.828 42.4883H169.109C169.547 42.4883 169.902 42.4453 170.176 42.3594C170.449 42.2656 170.648 42.1289 170.773 41.9492C170.906 41.7617 170.973 41.5352 170.973 41.2695C170.973 41.0352 170.93 40.8359 170.844 40.6719C170.766 40.5 170.645 40.3594 170.48 40.25C170.316 40.1406 170.109 40.0625 169.859 40.0156C169.617 39.9609 169.332 39.9336 169.004 39.9336H167.105V50H163.73V37.3203H169.004C169.832 37.3203 170.574 37.3945 171.23 37.543C171.887 37.6836 172.445 37.8984 172.906 38.1875C173.375 38.4766 173.73 38.8438 173.973 39.2891C174.223 39.7266 174.348 40.2461 174.348 40.8477C174.348 41.2383 174.258 41.6055 174.078 41.9492C173.906 42.293 173.648 42.5977 173.305 42.8633C172.961 43.1289 172.535 43.3477 172.027 43.5195C171.527 43.6836 170.949 43.7852 170.293 43.8242L169.824 44.7031ZM169.824 50H165.02L166.18 47.3867H169.824C170.238 47.3867 170.578 47.3359 170.844 47.2344C171.109 47.1328 171.305 46.9844 171.43 46.7891C171.562 46.5859 171.629 46.3438 171.629 46.0625C171.629 45.7891 171.57 45.5508 171.453 45.3477C171.336 45.1445 171.145 44.9883 170.879 44.8789C170.621 44.7617 170.27 44.7031 169.824 44.7031H166.672L166.695 42.4883H170.281L171.102 43.3789C171.992 43.4336 172.727 43.6016 173.305 43.8828C173.883 44.1641 174.309 44.5234 174.582 44.9609C174.863 45.3906 175.004 45.8633 175.004 46.3789C175.004 46.9805 174.891 47.5078 174.664 47.9609C174.438 48.4141 174.102 48.793 173.656 49.0977C173.219 49.3945 172.68 49.6211 172.039 49.7773C171.398 49.9258 170.66 50 169.824 50ZM180.441 45.2891L184.695 37.3203H188.07V50H184.695V42.0195L180.441 50H177.066V37.3203H180.441V45.2891ZM194.27 37.3203V50H190.895V37.3203H194.27ZM202.508 37.3203L197.047 45.2539H193.672L193.262 42.1367H195.5L198.23 37.3203H202.508ZM198.383 50L195.266 44.6445L198.207 43.0156L202.906 50H198.383ZM211.016 47.1406V41.4922C211.016 41.0859 210.949 40.7383 210.816 40.4492C210.684 40.1523 210.477 39.9219 210.195 39.7578C209.922 39.5938 209.566 39.5117 209.129 39.5117C208.754 39.5117 208.43 39.5781 208.156 39.7109C207.883 39.8359 207.672 40.0195 207.523 40.2617C207.375 40.4961 207.301 40.7734 207.301 41.0938H203.926C203.926 40.5547 204.051 40.043 204.301 39.5586C204.551 39.0742 204.914 38.6484 205.391 38.2812C205.867 37.9062 206.434 37.6133 207.09 37.4023C207.754 37.1914 208.496 37.0859 209.316 37.0859C210.301 37.0859 211.176 37.25 211.941 37.5781C212.707 37.9062 213.309 38.3984 213.746 39.0547C214.191 39.7109 214.414 40.5312 214.414 41.5156V46.9414C214.414 47.6367 214.457 48.207 214.543 48.6523C214.629 49.0898 214.754 49.4727 214.918 49.8008V50H211.508C211.344 49.6562 211.219 49.2266 211.133 48.7109C211.055 48.1875 211.016 47.6641 211.016 47.1406ZM211.461 42.2773L211.484 44.1875H209.598C209.152 44.1875 208.766 44.2383 208.438 44.3398C208.109 44.4414 207.84 44.5859 207.629 44.7734C207.418 44.9531 207.262 45.1641 207.16 45.4062C207.066 45.6484 207.02 45.9141 207.02 46.2031C207.02 46.4922 207.086 46.7539 207.219 46.9883C207.352 47.2148 207.543 47.3945 207.793 47.5273C208.043 47.6523 208.336 47.7148 208.672 47.7148C209.18 47.7148 209.621 47.6133 209.996 47.4102C210.371 47.207 210.66 46.957 210.863 46.6602C211.074 46.3633 211.184 46.082 211.191 45.8164L212.082 47.2461C211.957 47.5664 211.785 47.8984 211.566 48.2422C211.355 48.5859 211.086 48.9102 210.758 49.2148C210.43 49.5117 210.035 49.7578 209.574 49.9531C209.113 50.1406 208.566 50.2344 207.934 50.2344C207.129 50.2344 206.398 50.0742 205.742 49.7539C205.094 49.4258 204.578 48.9766 204.195 48.4062C203.82 47.8281 203.633 47.1719 203.633 46.4375C203.633 45.7734 203.758 45.1836 204.008 44.668C204.258 44.1523 204.625 43.7188 205.109 43.3672C205.602 43.0078 206.215 42.7383 206.949 42.5586C207.684 42.3711 208.535 42.2773 209.504 42.2773H211.461Z" fill="black"/>
</svg>
